<?xml version="1.0" encoding="utf-8"?>
<!-- Generator: Adobe Illustrator 17.0.2, SVG Export Plug-In . SVG Version: 6.00 Build 0)  -->
<!DOCTYPE svg PUBLIC "-//W3C//DTD SVG 1.1//EN" "http://www.w3.org/Graphics/SVG/1.1/DTD/svg11.dtd">
<svg version="1.1" id="Layer_1" xmlns="http://www.w3.org/2000/svg" xmlns:xlink="http://www.w3.org/1999/xlink" x="0px" y="0px"
	 width="539.875px" height="77.412px" viewBox="0 0 539.875 77.412" enable-background="new 0 0 539.875 77.412"
	 xml:space="preserve">
<g>
	<path fill="#FFFFFF" d="M1.05,16.812V0.37h4.526v16.441L1.05,16.812L1.05,16.812z"/>
	<path fill="#FFFFFF" d="M11.492,16.812V0.37h4.324l6.21,8.457c0.12,0.172,0.316,0.519,0.59,1.038
		c0.273,0.521,0.574,1.141,0.904,1.859c-0.09-0.682-0.155-1.288-0.197-1.819c-0.041-0.532-0.062-1.004-0.062-1.415V0.37h4.301
		v16.441h-4.301l-6.21-8.49c-0.127-0.172-0.328-0.519-0.601-1.039s-0.571-1.132-0.893-1.836c0.09,0.689,0.155,1.299,0.196,1.831
		c0.042,0.531,0.062,1.003,0.062,1.415v8.119L11.492,16.812L11.492,16.812z"/>
	<path fill="#FFFFFF" d="M31.458,16.812L37.129,0.37h5.615l5.683,16.441h-4.458l-0.831-2.942H36.77l-0.854,2.942L31.458,16.812
		L31.458,16.812z M37.736,10.669h4.458l-1.673-5.425c-0.052-0.164-0.124-0.431-0.213-0.797c-0.09-0.367-0.206-0.839-0.348-1.415
		c-0.097,0.404-0.193,0.79-0.287,1.156c-0.093,0.367-0.189,0.719-0.286,1.056L37.736,10.669z"/>
	<path fill="#FFFFFF" d="M51.794,0.37h4.47v7.996c0,1.176,0.03,2.02,0.09,2.532c0.06,0.514,0.161,0.942,0.303,1.286
		c0.172,0.42,0.472,0.739,0.898,0.96c0.427,0.222,0.947,0.332,1.561,0.332s1.132-0.11,1.555-0.332
		c0.423-0.221,0.725-0.54,0.904-0.96c0.142-0.344,0.243-0.772,0.303-1.286c0.06-0.513,0.09-1.356,0.09-2.532V7.243V0.37h4.458v8.692
		c0,1.805-0.108,3.136-0.326,3.992c-0.217,0.857-0.584,1.59-1.101,2.196c-0.562,0.666-1.333,1.166-2.313,1.499s-2.171,0.5-3.571,0.5
		c-1.408,0-2.6-0.167-3.577-0.5c-0.978-0.333-1.75-0.833-2.319-1.499c-0.509-0.606-0.874-1.339-1.095-2.196
		c-0.221-0.856-0.332-2.188-0.332-3.992V7.355V0.37H51.794z"/>
	<path fill="#FFFFFF" d="M79.947,10.759V7.311h8.805c0.007,0.112,0.013,0.236,0.017,0.371c0.004,0.135,0.006,0.333,0.006,0.595
		c0,2.83-0.747,5.025-2.24,6.587c-1.494,1.561-3.596,2.342-6.306,2.342c-1.333,0-2.518-0.2-3.554-0.602
		c-1.037-0.4-1.964-1.012-2.78-1.836c-0.779-0.786-1.383-1.716-1.814-2.791c-0.43-1.074-0.646-2.199-0.646-3.374
		c0-1.229,0.209-2.356,0.629-3.387c0.419-1.029,1.044-1.955,1.875-2.779c0.824-0.801,1.769-1.407,2.835-1.819
		C77.841,0.206,78.992,0,80.228,0c1.61,0,3.034,0.318,4.273,0.954c1.239,0.637,2.282,1.584,3.128,2.842L83.743,5.66
		c-0.464-0.637-0.986-1.11-1.566-1.421c-0.581-0.311-1.23-0.466-1.949-0.466c-1.34,0-2.396,0.447-3.167,1.342
		s-1.157,2.117-1.157,3.667c0,1.564,0.386,2.796,1.157,3.694s1.827,1.348,3.167,1.348c1.138,0,2.087-0.278,2.847-0.837
		c0.76-0.558,1.203-1.301,1.331-2.229h-4.459V10.759z"/>
	<path fill="#FFFFFF" d="M93.713,0.37h4.47v7.996c0,1.176,0.03,2.02,0.09,2.532c0.06,0.514,0.161,0.942,0.303,1.286
		c0.172,0.42,0.472,0.739,0.898,0.96c0.427,0.222,0.947,0.332,1.561,0.332s1.132-0.11,1.555-0.332
		c0.423-0.221,0.725-0.54,0.904-0.96c0.142-0.344,0.243-0.772,0.303-1.286c0.06-0.513,0.09-1.356,0.09-2.532V7.243V0.37h4.458v8.692
		c0,1.805-0.108,3.136-0.326,3.992c-0.217,0.857-0.584,1.59-1.101,2.196c-0.562,0.666-1.333,1.166-2.313,1.499s-2.171,0.5-3.571,0.5
		c-1.408,0-2.6-0.167-3.577-0.5c-0.978-0.333-1.75-0.833-2.319-1.499c-0.509-0.606-0.874-1.339-1.095-2.196
		c-0.221-0.856-0.332-2.188-0.332-3.992V7.355V0.37H93.713z"/>
	<path fill="#FFFFFF" d="M114.049,16.812V0.37h4.683c1.834,0,3.113,0.084,3.835,0.253c0.722,0.168,1.346,0.451,1.87,0.848
		c0.591,0.449,1.046,1.022,1.365,1.719c0.318,0.696,0.477,1.464,0.477,2.302c0,1.273-0.312,2.308-0.938,3.105
		c-0.625,0.797-1.537,1.327-2.734,1.589l4.481,6.626h-5.065l-3.773-6.435v6.435H114.049z M118.249,8.142h0.831
		c0.966,0,1.671-0.164,2.117-0.494c0.445-0.329,0.668-0.846,0.668-1.55c0-0.823-0.208-1.409-0.623-1.758
		c-0.416-0.348-1.114-0.521-2.095-0.521h-0.898C118.249,3.819,118.249,8.142,118.249,8.142z"/>
	<path fill="#FFFFFF" d="M129.163,16.812l5.671-16.441h5.615l5.683,16.441h-4.459l-0.831-2.942h-6.367l-0.854,2.942H129.163z
		 M135.441,10.669h4.458l-1.673-5.425c-0.053-0.164-0.124-0.431-0.214-0.797c-0.09-0.367-0.206-0.839-0.348-1.415
		c-0.098,0.404-0.193,0.79-0.287,1.156c-0.093,0.367-0.188,0.719-0.286,1.056L135.441,10.669z"/>
	<path fill="#FFFFFF" d="M151.442,16.812V4.256h-3.684V0.37h11.848v3.886h-3.684v12.556H151.442z"/>
	<path fill="#FFFFFF" d="M164.208,16.812V0.37h4.526v16.441L164.208,16.812L164.208,16.812z"/>
	<path fill="#FFFFFF" d="M191.53,8.625c0,1.183-0.217,2.291-0.651,3.324s-1.066,1.958-1.897,2.773
		c-0.839,0.809-1.797,1.432-2.875,1.87s-2.197,0.657-3.358,0.657c-1.175,0-2.3-0.22-3.374-0.657
		c-1.075-0.438-2.021-1.062-2.836-1.87c-0.847-0.815-1.488-1.744-1.926-2.785c-0.438-1.04-0.657-2.145-0.657-3.312
		c0-1.176,0.219-2.282,0.657-3.319c0.438-1.036,1.079-1.963,1.926-2.779c0.815-0.809,1.761-1.432,2.836-1.87
		C180.448,0.219,181.573,0,182.748,0c1.168,0,2.293,0.219,3.375,0.656c1.082,0.438,2.034,1.062,2.858,1.87
		c0.823,0.809,1.454,1.733,1.893,2.774C191.311,6.341,191.53,7.449,191.53,8.625z M182.748,13.454c1.243,0,2.271-0.457,3.083-1.37
		c0.812-0.914,1.219-2.066,1.219-3.459c0-1.378-0.412-2.527-1.235-3.448c-0.824-0.921-1.846-1.381-3.066-1.381
		c-1.242,0-2.271,0.458-3.082,1.375c-0.812,0.918-1.219,2.068-1.219,3.454c0,1.407,0.4,2.564,1.201,3.47
		C180.45,13.001,181.483,13.454,182.748,13.454z"/>
	<path fill="#FFFFFF" d="M196.637,16.812V0.37h4.324l6.21,8.457c0.12,0.172,0.316,0.519,0.59,1.038
		c0.273,0.521,0.574,1.141,0.904,1.859c-0.09-0.682-0.155-1.288-0.197-1.819c-0.041-0.532-0.062-1.004-0.062-1.415V0.37h4.302
		v16.441h-4.302l-6.21-8.49c-0.128-0.172-0.328-0.519-0.602-1.039c-0.272-0.52-0.57-1.132-0.893-1.836
		c0.09,0.689,0.155,1.299,0.196,1.831c0.042,0.531,0.062,1.003,0.062,1.415v8.119L196.637,16.812L196.637,16.812z"/>
	<path fill="#FFFFFF" d="M244.913,8.625c0,1.183-0.217,2.291-0.651,3.324s-1.066,1.958-1.897,2.773
		c-0.839,0.809-1.797,1.432-2.875,1.87s-2.197,0.657-3.358,0.657c-1.175,0-2.3-0.22-3.374-0.657
		c-1.075-0.438-2.021-1.062-2.836-1.87c-0.847-0.815-1.488-1.744-1.926-2.785c-0.438-1.04-0.657-2.145-0.657-3.312
		c0-1.176,0.219-2.282,0.657-3.319c0.438-1.036,1.079-1.963,1.926-2.779c0.815-0.809,1.761-1.432,2.836-1.87
		C233.831,0.219,234.956,0,236.13,0c1.168,0,2.293,0.219,3.375,0.656c1.082,0.438,2.034,1.062,2.858,1.87
		c0.823,0.809,1.454,1.733,1.893,2.774C244.694,6.341,244.913,7.449,244.913,8.625z M236.13,13.454c1.243,0,2.271-0.457,3.083-1.37
		c0.812-0.914,1.219-2.066,1.219-3.459c0-1.378-0.412-2.527-1.235-3.448c-0.824-0.921-1.846-1.381-3.066-1.381
		c-1.242,0-2.271,0.458-3.082,1.375c-0.812,0.918-1.219,2.068-1.219,3.454c0,1.407,0.4,2.564,1.201,3.47
		C233.833,13.001,234.866,13.454,236.13,13.454z"/>
	<path fill="#FFFFFF" d="M250.021,16.812V0.37h10.073v3.605h-5.705v2.853h5.38v3.526h-5.38v6.457L250.021,16.812L250.021,16.812z"/>
	<path fill="#FFFFFF" d="M274.33,16.812V0.37h3.426c2.553,0,4.359,0.12,5.418,0.359c1.06,0.24,1.99,0.641,2.791,1.202
		c1.041,0.726,1.831,1.656,2.37,2.79c0.539,1.135,0.809,2.428,0.809,3.881c0,1.452-0.27,2.745-0.809,3.88
		c-0.539,1.134-1.329,2.064-2.37,2.791c-0.793,0.554-1.699,0.948-2.718,1.185c-1.018,0.235-2.598,0.354-4.739,0.354h-0.752
		C277.756,16.812,274.33,16.812,274.33,16.812z M278.766,13.128h0.752c1.76,0,3.044-0.361,3.853-1.084
		c0.809-0.722,1.213-1.869,1.213-3.441s-0.404-2.726-1.213-3.459c-0.809-0.734-2.093-1.101-3.853-1.101h-0.752V13.128z"/>
	<path fill="#FFFFFF" d="M311.129,8.625c0,1.183-0.217,2.291-0.651,3.324s-1.066,1.958-1.897,2.773
		c-0.838,0.809-1.797,1.432-2.875,1.87s-2.197,0.657-3.357,0.657c-1.176,0-2.301-0.22-3.375-0.657
		c-1.074-0.438-2.02-1.062-2.836-1.87c-0.846-0.815-1.488-1.744-1.926-2.785c-0.438-1.04-0.657-2.145-0.657-3.312
		c0-1.176,0.219-2.282,0.657-3.319c0.438-1.036,1.08-1.963,1.926-2.779c0.816-0.809,1.762-1.432,2.836-1.87
		C300.047,0.219,301.172,0,302.348,0c1.168,0,2.293,0.219,3.374,0.656c1.082,0.438,2.035,1.062,2.858,1.87
		c0.824,0.809,1.454,1.733,1.893,2.774C310.911,6.341,311.129,7.449,311.129,8.625z M302.348,13.454c1.242,0,2.271-0.457,3.082-1.37
		c0.812-0.914,1.219-2.066,1.219-3.459c0-1.378-0.411-2.527-1.235-3.448c-0.823-0.921-1.846-1.381-3.065-1.381
		c-1.243,0-2.271,0.458-3.083,1.375c-0.812,0.918-1.219,2.068-1.219,3.454c0,1.407,0.4,2.564,1.202,3.47
		C300.049,13.001,301.083,13.454,302.348,13.454z"/>
	<path fill="#FFFFFF" d="M316.238,16.812V0.37h4.324l6.21,8.457c0.12,0.172,0.316,0.519,0.59,1.038
		c0.273,0.521,0.574,1.141,0.903,1.859c-0.09-0.682-0.155-1.288-0.196-1.819c-0.041-0.532-0.062-1.004-0.062-1.415V0.37h4.301
		v16.441h-4.301l-6.211-8.49c-0.127-0.172-0.327-0.519-0.601-1.039c-0.273-0.52-0.57-1.132-0.893-1.836
		c0.09,0.689,0.155,1.299,0.196,1.831c0.041,0.531,0.062,1.003,0.062,1.415v8.119L316.238,16.812L316.238,16.812z"/>
	<path fill="#FFFFFF" d="M336.203,16.812l5.672-16.441h5.615l5.682,16.441h-4.458l-0.831-2.942h-6.367l-0.854,2.942H336.203z
		 M342.48,10.669h4.459l-1.674-5.425c-0.052-0.164-0.123-0.431-0.213-0.797c-0.09-0.367-0.206-0.839-0.348-1.415
		c-0.098,0.404-0.193,0.79-0.287,1.156c-0.094,0.367-0.188,0.719-0.286,1.056L342.48,10.669z"/>
	<path fill="#FFFFFF" d="M357.043,16.812V0.37h4.48v12.601h5.57v3.841H357.043z"/>
	<path fill="#FFFFFF" d="M371.584,16.812V0.37h3.426c2.553,0,4.358,0.12,5.418,0.359c1.06,0.24,1.99,0.641,2.791,1.202
		c1.041,0.726,1.83,1.656,2.369,2.79c0.539,1.135,0.809,2.428,0.809,3.881c0,1.452-0.27,2.745-0.809,3.88
		c-0.539,1.134-1.328,2.064-2.369,2.791c-0.794,0.554-1.699,0.948-2.718,1.185c-1.019,0.235-2.598,0.354-4.739,0.354h-0.752
		C375.01,16.812,371.584,16.812,371.584,16.812z M376.02,13.128h0.753c1.76,0,3.044-0.361,3.853-1.084
		c0.809-0.722,1.213-1.869,1.213-3.441s-0.404-2.726-1.213-3.459c-0.809-0.734-2.093-1.101-3.853-1.101h-0.753V13.128z"/>
	<path fill="#FFFFFF" d="M404.24,0.37h4.47v10.669c0,1.161-0.075,2.052-0.225,2.673c-0.149,0.622-0.396,1.172-0.741,1.651
		c-0.457,0.621-1.019,1.091-1.685,1.409s-1.415,0.478-2.246,0.478c-1.033,0-1.954-0.221-2.763-0.663
		c-0.809-0.441-1.501-1.097-2.078-1.965l2.74-2.482c0.068,0.487,0.225,0.861,0.473,1.123c0.246,0.263,0.558,0.394,0.932,0.394
		c0.427,0,0.721-0.236,0.882-0.708s0.241-1.65,0.241-3.537L404.24,0.37L404.24,0.37z"/>
	<path fill="#FFFFFF" d="M412.76,14.97c0-0.636,0.216-1.172,0.646-1.605c0.431-0.435,0.964-0.651,1.6-0.651
		c0.652,0,1.194,0.217,1.629,0.651s0.651,0.97,0.651,1.605c0,0.637-0.219,1.176-0.657,1.617c-0.438,0.442-0.979,0.663-1.623,0.663
		c-0.629,0-1.16-0.221-1.594-0.663C412.978,16.146,412.76,15.606,412.76,14.97z"/>
	<path fill="#FFFFFF" d="M432.151,16.812V0.37h3.426c2.553,0,4.358,0.12,5.418,0.359c1.06,0.24,1.99,0.641,2.791,1.202
		c1.041,0.726,1.83,1.656,2.369,2.79c0.539,1.135,0.809,2.428,0.809,3.881c0,1.452-0.27,2.745-0.809,3.88
		c-0.539,1.134-1.328,2.064-2.369,2.791c-0.794,0.554-1.699,0.948-2.718,1.185c-1.019,0.235-2.598,0.354-4.739,0.354h-0.752
		C435.577,16.812,432.151,16.812,432.151,16.812z M436.586,13.128h0.753c1.76,0,3.044-0.361,3.853-1.084
		c0.809-0.722,1.213-1.869,1.213-3.441S442,5.877,441.192,5.144c-0.809-0.734-2.093-1.101-3.853-1.101h-0.753V13.128z"/>
	<path fill="#FFFFFF" d="M452.072,16.812V0.37h4.684c1.834,0,3.112,0.084,3.835,0.253c0.723,0.168,1.346,0.451,1.87,0.848
		c0.591,0.449,1.046,1.022,1.364,1.719s0.478,1.464,0.478,2.302c0,1.273-0.313,2.308-0.938,3.105s-1.536,1.327-2.734,1.589
		l4.481,6.626h-5.065l-3.773-6.435v6.435H452.072z M456.272,8.142h0.831c0.966,0,1.672-0.164,2.117-0.494
		c0.445-0.329,0.668-0.846,0.668-1.55c0-0.823-0.208-1.409-0.623-1.758c-0.416-0.348-1.114-0.521-2.095-0.521h-0.898V8.142z"/>
	<path fill="#FFFFFF" d="M469.017,0.37h4.471v7.996c0,1.176,0.029,2.02,0.09,2.532c0.06,0.514,0.16,0.942,0.303,1.286
		c0.172,0.42,0.472,0.739,0.898,0.96c0.427,0.222,0.947,0.332,1.561,0.332s1.133-0.11,1.556-0.332
		c0.423-0.221,0.725-0.54,0.904-0.96c0.143-0.344,0.243-0.772,0.304-1.286c0.06-0.513,0.09-1.356,0.09-2.532V7.243V0.37h4.458v8.692
		c0,1.805-0.108,3.136-0.325,3.992c-0.218,0.857-0.584,1.59-1.102,2.196c-0.561,0.666-1.332,1.166-2.312,1.499
		c-0.981,0.333-2.172,0.5-3.572,0.5c-1.407,0-2.6-0.167-3.576-0.5c-0.978-0.333-1.75-0.833-2.319-1.499
		c-0.509-0.606-0.874-1.339-1.095-2.196c-0.221-0.856-0.332-2.188-0.332-3.992V7.355V0.37H469.017z"/>
	<path fill="#FFFFFF" d="M508.209,16.812h-4.188l-0.966-7.108c-0.067-0.502-0.129-1.06-0.186-1.674
		c-0.056-0.613-0.106-1.284-0.151-2.01c-0.104,0.696-0.311,1.564-0.618,2.605c-0.066,0.217-0.115,0.378-0.146,0.482l-2.235,7.704
		h-2.986l-2.235-7.704c-0.03-0.104-0.075-0.266-0.135-0.482c-0.314-1.041-0.521-1.905-0.618-2.595
		c-0.045,0.622-0.097,1.237-0.156,1.848c-0.061,0.61-0.132,1.219-0.214,1.825l-0.966,7.108h-4.166L490.78,0.37h4.437l2.481,8.479
		c0.016,0.06,0.045,0.157,0.09,0.292c0.232,0.756,0.379,1.403,0.438,1.942c0.03-0.292,0.086-0.615,0.169-0.972
		c0.082-0.355,0.194-0.784,0.336-1.285l2.505-8.457h4.447L508.209,16.812z"/>
	<path fill="#FFFFFF" d="M517.125,16.812h-4.2V0.37h4.684c1.834,0,3.121,0.09,3.863,0.27c0.74,0.18,1.369,0.487,1.887,0.921
		c0.605,0.502,1.068,1.129,1.387,1.881c0.318,0.753,0.477,1.59,0.477,2.511c0,0.98-0.156,1.844-0.471,2.588
		c-0.314,0.745-0.779,1.357-1.393,1.837c-0.465,0.359-1.012,0.617-1.641,0.774s-1.636,0.236-3.021,0.236h-0.764h-0.809
		L517.125,16.812L517.125,16.812z M517.125,7.771h0.854c1.078,0,1.831-0.148,2.257-0.444c0.428-0.295,0.641-0.799,0.641-1.51
		c0-0.689-0.21-1.18-0.629-1.472s-1.16-0.438-2.224-0.438h-0.898L517.125,7.771L517.125,7.771z"/>
	<path fill="#FFFFFF" d="M529.801,16.812V0.37h10.074v3.605h-5.705v2.853h5.379v3.526h-5.379v6.457L529.801,16.812L529.801,16.812z"
		/>
	<path fill="#FFFFFF" d="M1,39.111h13.95c3.167,0,6.108,0.359,8.825,1.075c2.716,0.718,5.075,1.858,7.075,3.425
		c2,1.567,3.575,3.575,4.725,6.025s1.725,5.408,1.725,8.875c0,2.8-0.467,5.325-1.4,7.575c-0.934,2.25-2.242,4.175-3.925,5.774
		c-1.684,1.601-3.684,2.825-6,3.676c-2.317,0.85-4.858,1.274-7.625,1.274H1V39.111z M14.7,65.512h0.85
		c1.133,0,2.191-0.133,3.175-0.4c0.983-0.266,1.833-0.691,2.55-1.274c0.716-0.583,1.283-1.316,1.7-2.2
		c0.417-0.883,0.625-1.941,0.625-3.175c0-2.667-0.717-4.592-2.15-5.775c-1.434-1.183-3.4-1.774-5.9-1.774H14.7V65.512z"/>
	<path fill="#FFFFFF" d="M47.25,39.111H63.8c2.133,0,4.15,0.234,6.05,0.7c1.9,0.468,3.566,1.226,5,2.275
		c1.433,1.05,2.566,2.408,3.4,4.075c0.833,1.667,1.25,3.684,1.25,6.05c0,1.434-0.142,2.667-0.425,3.7s-0.725,1.934-1.325,2.699
		c-0.6,0.768-1.359,1.418-2.275,1.95c-0.917,0.534-2.009,1.018-3.275,1.45v0.3c0.367,0.268,0.75,0.567,1.15,0.9
		s0.783,0.783,1.15,1.35l8.2,12.25H66.9l-6-12.1h-0.25v12.1h-13.4C47.25,76.81,47.25,39.111,47.25,39.111z M60.649,55.812h0.95
		c0.566,0,1.116-0.032,1.65-0.1c0.533-0.066,1.016-0.208,1.45-0.425c0.433-0.217,0.775-0.533,1.025-0.95s0.375-0.976,0.375-1.675
		c0-0.733-0.117-1.309-0.35-1.726c-0.234-0.416-0.55-0.741-0.95-0.975s-0.867-0.383-1.4-0.45c-0.534-0.066-1.1-0.1-1.7-0.1h-1.05
		C60.649,49.411,60.649,55.812,60.649,55.812z"/>
	<path fill="#FFFFFF" d="M90.199,39.111h13.7v37.7h-13.7V39.111z"/>
	<path fill="#FFFFFF" d="M115.049,39.111h13.15l12.3,20.9h0.4c-0.268-1.6-0.525-3.2-0.775-4.8c-0.25-1.601-0.375-3.2-0.375-4.8
		v-11.3h13.101v37.7h-13.101l-12.05-19.8h-0.4c0.233,1.3,0.433,2.567,0.6,3.8c0.167,1.233,0.25,2.483,0.25,3.75v12.25h-13.1V39.111z
		"/>
	<path fill="#FFFFFF" d="M163.949,39.111h13.35l-0.3,16.351h0.3c0.166-0.767,0.433-1.5,0.8-2.2c0.366-0.7,0.733-1.383,1.101-2.05
		l6.6-12.101h14.95l-11.8,18.351L202,76.812h-15.9l-6.5-11.399c-0.399-0.733-0.842-1.458-1.325-2.176
		c-0.483-0.716-0.809-1.457-0.975-2.225H177l0.3,15.8h-13.35V39.111H163.949z"/>
	<path fill="#FFFFFF" d="M209.999,39.111h13.699v37.7h-13.699V39.111z"/>
	<path fill="#FFFFFF" d="M234.848,39.111h13.149l12.301,20.9h0.399c-0.267-1.6-0.524-3.2-0.774-4.8c-0.25-1.601-0.375-3.2-0.375-4.8
		v-11.3h13.1v37.7h-13.1l-12.051-19.8h-0.399c0.232,1.3,0.433,2.567,0.6,3.8c0.167,1.233,0.25,2.483,0.25,3.75v12.25h-13.1V39.111z"
		/>
	<path fill="#FFFFFF" d="M323.498,54.611c-0.034,1.534-0.075,3.009-0.125,4.426s-0.218,2.792-0.5,4.125
		c-0.284,1.333-0.733,2.625-1.351,3.875s-1.475,2.475-2.574,3.675c-1,1.1-2.125,2.067-3.375,2.899
		c-1.25,0.834-2.567,1.534-3.95,2.101c-1.384,0.567-2.809,0.992-4.275,1.274c-1.467,0.283-2.934,0.426-4.399,0.426
		c-2.867,0-5.567-0.434-8.101-1.301c-2.533-0.866-4.742-2.125-6.625-3.774c-1.883-1.65-3.367-3.658-4.449-6.025
		c-1.084-2.366-1.625-5.066-1.625-8.1c0-3.066,0.532-5.816,1.6-8.25c1.066-2.433,2.533-4.5,4.4-6.2c1.866-1.7,4.074-3,6.625-3.9
		c2.55-0.899,5.308-1.35,8.274-1.35c1.633,0,3.375,0.2,5.226,0.6c1.85,0.4,3.641,1.009,5.374,1.825
		c1.733,0.817,3.301,1.834,4.7,3.05c1.4,1.218,2.467,2.625,3.2,4.226l-12.8,4.7c-0.533-0.967-1.259-1.691-2.175-2.176
		c-0.917-0.482-1.925-0.725-3.025-0.725c-1.233,0-2.317,0.242-3.25,0.725c-0.934,0.484-1.725,1.134-2.375,1.95
		c-0.649,0.817-1.142,1.75-1.475,2.8c-0.334,1.051-0.5,2.143-0.5,3.275c0,1.033,0.157,2.033,0.475,3
		c0.316,0.967,0.775,1.825,1.375,2.575c0.601,0.75,1.342,1.35,2.226,1.8c0.883,0.45,1.875,0.675,2.975,0.675
		c0.533,0,1.092-0.066,1.675-0.2c0.583-0.133,1.133-0.332,1.65-0.6c0.517-0.267,0.975-0.607,1.375-1.025
		c0.399-0.416,0.683-0.907,0.85-1.475h-6.2v-8.9h21.149V54.611z"/>
	<path fill="#FFFFFF" d="M398.846,54.611c-0.034,1.534-0.075,3.009-0.125,4.426s-0.218,2.792-0.5,4.125
		c-0.284,1.333-0.733,2.625-1.351,3.875s-1.475,2.475-2.574,3.675c-1,1.1-2.125,2.067-3.375,2.899
		c-1.25,0.834-2.567,1.534-3.95,2.101c-1.384,0.567-2.809,0.992-4.275,1.274c-1.467,0.283-2.934,0.426-4.399,0.426
		c-2.867,0-5.567-0.434-8.101-1.301c-2.533-0.866-4.742-2.125-6.625-3.774c-1.884-1.65-3.367-3.658-4.45-6.025
		c-1.083-2.366-1.625-5.066-1.625-8.1c0-3.066,0.533-5.816,1.601-8.25c1.066-2.433,2.532-4.5,4.399-6.2s4.075-3,6.625-3.9
		c2.551-0.899,5.309-1.35,8.275-1.35c1.633,0,3.375,0.2,5.225,0.6c1.851,0.4,3.642,1.009,5.375,1.825
		c1.733,0.817,3.301,1.834,4.7,3.05c1.4,1.218,2.467,2.625,3.2,4.226l-12.8,4.7c-0.534-0.967-1.259-1.691-2.175-2.176
		c-0.918-0.482-1.926-0.725-3.025-0.725c-1.233,0-2.317,0.242-3.25,0.725c-0.934,0.484-1.725,1.134-2.375,1.95
		c-0.65,0.817-1.143,1.75-1.475,2.8c-0.334,1.051-0.5,2.143-0.5,3.275c0,1.033,0.157,2.033,0.475,3
		c0.316,0.967,0.775,1.825,1.375,2.575c0.6,0.75,1.342,1.35,2.225,1.8s1.875,0.675,2.976,0.675c0.532,0,1.091-0.066,1.675-0.2
		c0.583-0.133,1.133-0.332,1.65-0.6c0.516-0.267,0.975-0.607,1.375-1.025c0.399-0.416,0.683-0.907,0.85-1.475h-6.2v-8.9h21.149
		V54.611z"/>
	<path fill="#FFFFFF" d="M419.646,76.812h-14.5l13.1-37.7h15.15l13.45,37.7h-14.5l-1.25-4.7h-10.351L419.646,76.812z
		 M428.696,63.162l-1.6-6.65c-0.2-0.8-0.367-1.607-0.5-2.425c-0.134-0.816-0.268-1.625-0.4-2.425h-0.5l-2.5,11.5H428.696z"/>
	<path fill="#FFFFFF" d="M459.246,39.111h14.1l5.2,19.801h0.35c0.133-0.833,0.267-1.676,0.4-2.525
		c0.133-0.85,0.316-1.675,0.55-2.475l4.25-14.801h13.95l6.2,37.7h-13.25l-1.851-20.649h-0.25c-0.134,0.633-0.267,1.267-0.399,1.899
		c-0.134,0.634-0.301,1.25-0.5,1.851l-5.45,16.899h-8l-4.9-15.95c-0.2-0.8-0.375-1.582-0.524-2.35
		c-0.15-0.767-0.259-1.55-0.325-2.35h-0.45c-0.067,0.767-0.125,1.524-0.175,2.274s-0.108,1.509-0.175,2.275l-1.601,16.1h-13.25
		L459.246,39.111z"/>
	<path fill="#FFFFFF" d="M513.645,39.111h25.35v10.301h-11.55v3.6h10.55v9.8h-10.55v3.7h11.95v10.3h-25.75V39.111z"/>
</g>
</svg>
