<svg xmlns="http://www.w3.org/2000/svg" width="539.875" height="77.412" viewBox="0 0 539.875 77.412"><g fill="#FFF"><path d="M1.05 16.812V.37h4.526v16.44l-4.526.002zM11.492 16.812V.37h4.324l6.21 8.457c.12.172.316.52.59 1.038.273.52.574 1.14.904 1.86a35.328 35.328 0 0 1-.197-1.82 18.677 18.677 0 0 1-.062-1.415V.37h4.302v16.44h-4.3l-6.21-8.49c-.128-.17-.33-.518-.602-1.038s-.57-1.132-.893-1.836c.09.69.155 1.3.196 1.83.042.532.062 1.004.062 1.416v8.12h-4.323zM31.458 16.812L37.128.37h5.616l5.683 16.44H43.97l-.832-2.94H36.77l-.854 2.94-4.458.002zm6.278-6.143h4.458L40.52 5.243a13.35 13.35 0 0 1-.212-.797l-.348-1.415c-.097.404-.193.79-.287 1.156-.093.367-.19.72-.286 1.056l-1.65 5.425zM51.794.37h4.47v7.996c0 1.176.03 2.02.09 2.532.06.514.16.942.303 1.286.172.42.472.74.898.96.427.222.947.332 1.56.332s1.133-.11 1.556-.332c.424-.22.726-.54.905-.96.142-.344.243-.772.303-1.286.06-.513.09-1.356.09-2.532V.37h4.458v8.692c0 1.805-.108 3.136-.326 3.992-.217.857-.584 1.59-1.1 2.196-.563.666-1.334 1.166-2.314 1.5s-2.17.5-3.57.5c-1.41 0-2.6-.168-3.578-.5-.978-.334-1.75-.834-2.32-1.5-.508-.606-.873-1.34-1.094-2.196-.22-.856-.332-2.188-.332-3.992V.37h.002zM79.947 10.76V7.31h8.805c.007.113.013.237.017.372.003.135.005.333.005.595 0 2.83-.747 5.025-2.24 6.587-1.494 1.56-3.596 2.342-6.306 2.342-1.334 0-2.52-.2-3.555-.602a7.867 7.867 0 0 1-2.78-1.836 8.304 8.304 0 0 1-1.814-2.79 8.996 8.996 0 0 1-.645-3.375c0-1.23.21-2.356.63-3.387a8.296 8.296 0 0 1 1.874-2.78A8.342 8.342 0 0 1 76.773.62C77.84.206 78.992 0 80.228 0c1.61 0 3.034.318 4.273.954 1.24.637 2.283 1.584 3.13 2.842L83.742 5.66c-.464-.637-.986-1.11-1.566-1.42-.58-.312-1.23-.467-1.95-.467-1.34 0-2.395.447-3.166 1.342s-1.156 2.117-1.156 3.667c0 1.564.386 2.796 1.157 3.694s1.828 1.348 3.168 1.348c1.138 0 2.087-.278 2.847-.837a3.205 3.205 0 0 0 1.33-2.23h-4.458v.002zM93.713.37h4.47v7.996c0 1.176.03 2.02.09 2.532.06.514.16.942.303 1.286.172.42.472.74.898.96.427.222.947.332 1.56.332s1.133-.11 1.556-.332c.423-.22.725-.54.904-.96.142-.344.243-.772.303-1.286.06-.513.09-1.356.09-2.532V.37h4.458v8.692c0 1.805-.108 3.136-.326 3.992-.218.857-.585 1.59-1.102 2.196-.562.666-1.333 1.166-2.313 1.5s-2.17.5-3.57.5c-1.41 0-2.6-.168-3.578-.5-.978-.334-1.75-.834-2.32-1.5-.508-.606-.873-1.34-1.094-2.196-.22-.856-.332-2.188-.332-3.992V.37h.003zM114.05 16.812V.37h4.682c1.834 0 3.113.084 3.835.253.722.168 1.346.45 1.87.848a4.442 4.442 0 0 1 1.365 1.72c.318.696.477 1.464.477 2.302 0 1.273-.313 2.308-.94 3.105-.624.797-1.536 1.327-2.733 1.59l4.48 6.625h-5.064l-3.773-6.435v6.435h-4.2zm4.2-8.67h.83c.966 0 1.67-.164 2.117-.494.445-.33.668-.846.668-1.55 0-.823-.208-1.41-.623-1.758-.416-.348-1.114-.52-2.095-.52h-.898V8.14zM129.163 16.812l5.67-16.44h5.616l5.682 16.44h-4.46l-.83-2.942h-6.367l-.854 2.942h-4.457zm6.278-6.143h4.46l-1.674-5.426c-.053-.164-.124-.43-.214-.797l-.348-1.415c-.098.404-.193.79-.287 1.156-.093.367-.188.72-.286 1.056l-1.65 5.425zM151.442 16.812V4.256h-3.684V.37h11.848v3.886h-3.684v12.556h-4.48zM164.208 16.812V.37h4.526v16.44l-4.526.002zM191.53 8.625c0 1.183-.217 2.29-.65 3.324s-1.067 1.957-1.898 2.772c-.84.81-1.797 1.432-2.875 1.87s-2.197.657-3.358.657a8.87 8.87 0 0 1-3.375-.658 8.595 8.595 0 0 1-2.836-1.87 8.306 8.306 0 0 1-2.584-6.097c0-1.176.22-2.282.657-3.32a8.343 8.343 0 0 1 1.926-2.778 8.58 8.58 0 0 1 2.835-1.87A8.843 8.843 0 0 1 182.748 0a8.93 8.93 0 0 1 3.375.656 8.71 8.71 0 0 1 2.858 1.87 8.476 8.476 0 0 1 1.894 2.774 8.5 8.5 0 0 1 .656 3.325zm-8.782 4.83c1.243 0 2.27-.458 3.083-1.37.813-.915 1.22-2.067 1.22-3.46 0-1.378-.412-2.527-1.235-3.448-.824-.92-1.846-1.38-3.066-1.38-1.243 0-2.272.457-3.083 1.374-.812.92-1.22 2.07-1.22 3.455 0 1.407.4 2.564 1.202 3.47.8.906 1.833 1.36 3.098 1.36zM196.637 16.812V.37h4.324l6.21 8.457c.12.172.317.52.59 1.038.274.52.575 1.14.905 1.86a35.328 35.328 0 0 1-.197-1.82 18.677 18.677 0 0 1-.062-1.415V.37h4.302v16.44h-4.302l-6.21-8.49c-.128-.17-.328-.518-.602-1.038-.272-.52-.57-1.132-.893-1.836.09.69.156 1.3.197 1.83.042.532.062 1.004.062 1.416v8.12h-4.323zM244.913 8.625c0 1.183-.217 2.29-.65 3.324s-1.067 1.957-1.898 2.772c-.84.81-1.797 1.432-2.875 1.87s-2.197.657-3.358.657a8.87 8.87 0 0 1-3.374-.658 8.595 8.595 0 0 1-2.836-1.87 8.306 8.306 0 0 1-2.583-6.097c0-1.176.218-2.282.656-3.32a8.343 8.343 0 0 1 1.926-2.778 8.58 8.58 0 0 1 2.836-1.87A8.84 8.84 0 0 1 236.13 0a8.93 8.93 0 0 1 3.375.656 8.71 8.71 0 0 1 2.858 1.87 8.476 8.476 0 0 1 1.893 2.774c.438 1.04.657 2.15.657 3.325zm-8.783 4.83c1.243 0 2.27-.458 3.083-1.37.812-.915 1.22-2.067 1.22-3.46 0-1.378-.413-2.527-1.236-3.448-.824-.92-1.846-1.38-3.066-1.38-1.24 0-2.27.457-3.08 1.374-.813.92-1.22 2.07-1.22 3.455 0 1.407.4 2.564 1.2 3.47.803.906 1.836 1.36 3.1 1.36zM250.02 16.812V.37h10.074v3.605h-5.705v2.853h5.38v3.526h-5.38v6.457l-4.37.002zM274.33 16.812V.37h3.426c2.553 0 4.36.12 5.418.36 1.06.24 1.99.64 2.79 1.2a7.028 7.028 0 0 1 2.37 2.79c.54 1.136.81 2.43.81 3.882s-.27 2.745-.81 3.88a7.038 7.038 0 0 1-2.37 2.79c-.792.555-1.698.95-2.717 1.186-1.018.235-2.598.354-4.74.354h-.75-3.427zm4.436-3.684h.752c1.76 0 3.044-.36 3.853-1.084.81-.722 1.214-1.87 1.214-3.44s-.404-2.727-1.213-3.46c-.808-.734-2.092-1.1-3.852-1.1h-.752v9.084zM311.13 8.625c0 1.183-.218 2.29-.652 3.324s-1.066 1.957-1.897 2.772c-.837.81-1.796 1.432-2.874 1.87s-2.197.657-3.357.657c-1.177 0-2.302-.22-3.376-.658a8.615 8.615 0 0 1-2.836-1.87 8.32 8.32 0 0 1-1.926-2.785 8.45 8.45 0 0 1-.657-3.312c0-1.176.22-2.282.657-3.32a8.358 8.358 0 0 1 1.926-2.778 8.6 8.6 0 0 1 2.836-1.87A8.844 8.844 0 0 1 302.348 0c1.168 0 2.293.22 3.374.656a8.698 8.698 0 0 1 2.858 1.87 8.46 8.46 0 0 1 1.893 2.774c.438 1.04.656 2.15.656 3.325zm-8.782 4.83c1.242 0 2.27-.458 3.082-1.37.812-.915 1.22-2.067 1.22-3.46 0-1.378-.412-2.527-1.236-3.448-.823-.92-1.846-1.38-3.065-1.38-1.244 0-2.272.457-3.084 1.374-.812.92-1.22 2.07-1.22 3.455 0 1.407.4 2.564 1.203 3.47.8.906 1.833 1.36 3.098 1.36zM316.238 16.812V.37h4.324l6.21 8.457c.12.172.316.52.59 1.038.273.52.574 1.14.903 1.86a34.154 34.154 0 0 1-.196-1.82 18.677 18.677 0 0 1-.063-1.415V.37h4.3v16.44h-4.3l-6.21-8.49c-.128-.17-.328-.518-.602-1.038-.273-.52-.57-1.132-.893-1.836.09.69.155 1.3.196 1.83.04.532.062 1.004.062 1.416v8.12h-4.322zM336.203 16.812l5.672-16.44h5.615l5.682 16.44h-4.458l-.83-2.942h-6.368l-.854 2.942h-4.46zm6.277-6.143h4.46l-1.675-5.426c-.052-.164-.123-.43-.213-.797l-.348-1.415c-.098.404-.193.79-.287 1.156-.094.367-.188.72-.286 1.056l-1.65 5.425zM357.043 16.812V.37h4.48v12.6h5.57v3.842h-10.05zM371.584 16.812V.37h3.426c2.553 0 4.358.12 5.418.36 1.06.24 1.99.64 2.79 1.2a7.026 7.026 0 0 1 2.37 2.79c.54 1.136.81 2.43.81 3.882s-.27 2.745-.81 3.88a7.035 7.035 0 0 1-2.37 2.79 7.77 7.77 0 0 1-2.717 1.186c-1.018.235-2.597.354-4.738.354h-.752-3.426zm4.436-3.684h.753c1.76 0 3.044-.36 3.853-1.084.81-.722 1.213-1.87 1.213-3.44s-.405-2.727-1.214-3.46c-.81-.734-2.093-1.1-3.853-1.1h-.753v9.084zM404.24.37h4.47v10.67c0 1.16-.075 2.05-.225 2.672a4.64 4.64 0 0 1-.74 1.65c-.458.622-1.02 1.092-1.686 1.41s-1.416.478-2.247.478c-1.033 0-1.954-.22-2.763-.663-.81-.44-1.5-1.097-2.078-1.965l2.74-2.482c.068.487.225.86.473 1.123.246.263.558.394.932.394.427 0 .72-.236.882-.708s.24-1.65.24-3.538V.37zM412.76 14.97c0-.636.216-1.172.646-1.605.43-.435.964-.65 1.6-.65.652 0 1.194.216 1.63.65s.65.97.65 1.605c0 .637-.22 1.176-.657 1.617-.44.442-.98.663-1.624.663-.63 0-1.16-.22-1.594-.663a2.22 2.22 0 0 1-.652-1.617zM432.15 16.812V.37h3.427c2.553 0 4.358.12 5.418.36 1.06.24 1.99.64 2.79 1.2a7.026 7.026 0 0 1 2.37 2.79c.54 1.136.81 2.43.81 3.882s-.27 2.745-.81 3.88a7.035 7.035 0 0 1-2.37 2.79 7.77 7.77 0 0 1-2.717 1.186c-1.02.235-2.598.354-4.74.354h-.75-3.427zm4.436-3.684h.753c1.76 0 3.043-.36 3.852-1.084.81-.722 1.213-1.87 1.213-3.44s-.405-2.727-1.213-3.46c-.81-.734-2.093-1.1-3.853-1.1h-.754v9.084zM452.072 16.812V.37h4.684c1.834 0 3.112.084 3.835.253.724.168 1.347.45 1.87.848.592.45 1.047 1.023 1.365 1.72s.478 1.464.478 2.302c0 1.273-.313 2.308-.938 3.105s-1.536 1.327-2.734 1.59l4.482 6.625h-5.065l-3.773-6.435v6.435h-4.202zm4.2-8.67h.83c.967 0 1.673-.164 2.118-.494.445-.33.668-.846.668-1.55 0-.823-.208-1.41-.623-1.758-.416-.348-1.114-.52-2.095-.52h-.898V8.14zM469.017.37h4.47v7.996c0 1.176.03 2.02.09 2.532.06.514.16.942.304 1.286.173.42.473.74.9.96.426.222.946.332 1.56.332s1.133-.11 1.556-.332c.423-.22.725-.54.904-.96.143-.344.243-.772.304-1.286.06-.513.09-1.356.09-2.532V.37h4.458v8.692c0 1.805-.108 3.136-.325 3.992-.218.857-.584 1.59-1.102 2.196-.56.666-1.332 1.166-2.312 1.5-.98.332-2.172.5-3.572.5-1.406 0-2.6-.168-3.575-.5-.978-.334-1.75-.834-2.32-1.5-.508-.606-.873-1.34-1.094-2.196-.22-.856-.33-2.188-.33-3.992V.37h-.003zM508.21 16.812h-4.19l-.965-7.108c-.067-.502-.13-1.06-.186-1.674a69.57 69.57 0 0 1-.152-2.01c-.104.696-.31 1.564-.618 2.605l-.146.482-2.235 7.704h-2.987l-2.235-7.703-.135-.482c-.314-1.04-.52-1.905-.618-2.595a77.072 77.072 0 0 1-.156 1.848c-.062.61-.133 1.22-.215 1.825l-.966 7.108h-4.167L490.78.37h4.437l2.48 8.48c.017.06.046.156.09.29.233.757.38 1.404.44 1.943a7.88 7.88 0 0 1 .168-.972c.082-.354.194-.783.336-1.284L501.237.37h4.447l2.526 16.442zM517.125 16.812h-4.2V.37h4.684c1.833 0 3.12.09 3.862.27.74.18 1.37.487 1.887.92a4.88 4.88 0 0 1 1.386 1.882c.318.753.477 1.59.477 2.51 0 .98-.156 1.845-.47 2.59a4.513 4.513 0 0 1-1.394 1.836c-.466.36-1.013.617-1.642.774s-1.636.236-3.02.236H517.122l.002 5.424zm0-9.04h.854c1.077 0 1.83-.15 2.256-.445.428-.295.64-.8.64-1.51 0-.69-.21-1.18-.628-1.472s-1.16-.438-2.224-.438h-.898V7.77zM529.8 16.812V.37h10.075v3.605h-5.705v2.853h5.38v3.526h-5.38v6.457l-4.37.002zM1 39.11h13.95c3.167 0 6.108.36 8.825 1.076 2.716.718 5.075 1.858 7.075 3.425 2 1.568 3.575 3.576 4.725 6.026S37.3 55.044 37.3 58.51c0 2.8-.467 5.326-1.4 7.576-.934 2.25-2.242 4.175-3.925 5.774-1.684 1.6-3.684 2.825-6 3.676-2.317.85-4.858 1.274-7.625 1.274H1v-37.7zm13.7 26.402h.85c1.133 0 2.19-.133 3.175-.4.983-.266 1.833-.69 2.55-1.274a6.203 6.203 0 0 0 1.7-2.2c.417-.883.625-1.94.625-3.175 0-2.667-.717-4.592-2.15-5.775-1.434-1.183-3.4-1.774-5.9-1.774h-.85v14.598zM47.25 39.11H63.8c2.133 0 4.15.235 6.05.7 1.9.47 3.566 1.227 5 2.276 1.433 1.05 2.566 2.408 3.4 4.075.833 1.668 1.25 3.685 1.25 6.05 0 1.435-.142 2.668-.425 3.7s-.725 1.935-1.325 2.7c-.6.768-1.36 1.418-2.275 1.95-.917.534-2.01 1.018-3.275 1.45v.3c.367.268.75.567 1.15.9s.783.783 1.15 1.35l8.2 12.25H66.9l-6-12.1h-.25v12.1h-13.4v-37.7zm13.4 16.702h.95c.565 0 1.115-.032 1.65-.1a4.435 4.435 0 0 0 1.45-.425c.432-.217.774-.533 1.024-.95s.375-.976.375-1.675c0-.733-.118-1.31-.35-1.726-.235-.416-.55-.74-.95-.975s-.868-.382-1.4-.45c-.535-.065-1.1-.1-1.7-.1h-1.05v6.402zM90.2 39.11h13.7v37.7H90.2v-37.7zM115.05 39.11h13.15l12.3 20.9h.4c-.27-1.6-.526-3.2-.776-4.8-.25-1.6-.375-3.2-.375-4.8v-11.3h13.1v37.7h-13.1l-12.05-19.8h-.4c.232 1.3.432 2.568.6 3.8a27.91 27.91 0 0 1 .25 3.75v12.25h-13.1v-37.7zM163.95 39.11h13.35l-.3 16.352h.3c.165-.767.432-1.5.8-2.2.365-.7.732-1.383 1.1-2.05l6.6-12.1h14.95l-11.8 18.35L202 76.812h-15.9l-6.5-11.4a27.21 27.21 0 0 0-1.325-2.175c-.483-.716-.81-1.457-.975-2.225h-.3l.3 15.8h-13.35v-37.7zM210 39.11h13.698v37.7h-13.7v-37.7zM234.848 39.11h13.15l12.3 20.9h.4c-.268-1.6-.525-3.2-.775-4.8-.25-1.6-.375-3.2-.375-4.8v-11.3h13.1v37.7h-13.1l-12.05-19.8h-.4c.232 1.3.433 2.568.6 3.8a27.91 27.91 0 0 1 .25 3.75v12.25h-13.1v-37.7zM323.498 54.61c-.034 1.535-.075 3.01-.125 4.427s-.218 2.792-.5 4.125c-.284 1.333-.733 2.625-1.35 3.875s-1.476 2.475-2.575 3.675c-1 1.1-2.125 2.067-3.375 2.9a22.432 22.432 0 0 1-8.225 3.374 23.182 23.182 0 0 1-4.4.426c-2.866 0-5.566-.434-8.1-1.3-2.533-.867-4.742-2.126-6.625-3.775-1.883-1.65-3.367-3.658-4.45-6.025-1.083-2.366-1.624-5.066-1.624-8.1 0-3.066.53-5.816 1.6-8.25 1.065-2.433 2.532-4.5 4.4-6.2 1.865-1.7 4.073-3 6.624-3.9 2.55-.9 5.308-1.35 8.274-1.35 1.633 0 3.375.2 5.226.6 1.85.4 3.64 1.01 5.374 1.825 1.733.817 3.3 1.834 4.7 3.05 1.4 1.218 2.467 2.625 3.2 4.226l-12.8 4.7c-.533-.967-1.26-1.69-2.175-2.176-.917-.482-1.925-.725-3.025-.725-1.233 0-2.317.242-3.25.725a7.288 7.288 0 0 0-2.375 1.95 8.672 8.672 0 0 0-1.475 2.8 10.75 10.75 0 0 0-.5 3.275 9.54 9.54 0 0 0 .475 3 8.117 8.117 0 0 0 1.375 2.575 6.72 6.72 0 0 0 2.226 1.8c.883.45 1.875.675 2.975.675a7.48 7.48 0 0 0 1.674-.2 6.904 6.904 0 0 0 1.65-.6 5.17 5.17 0 0 0 1.375-1.025c.398-.416.682-.907.85-1.475h-6.2v-8.9h21.148zM398.846 54.61c-.034 1.535-.075 3.01-.125 4.427s-.217 2.792-.5 4.125c-.283 1.333-.732 2.625-1.35 3.875s-1.475 2.475-2.574 3.675c-1 1.1-2.125 2.067-3.375 2.9a22.432 22.432 0 0 1-8.224 3.374 23.182 23.182 0 0 1-4.4.426c-2.866 0-5.566-.434-8.1-1.3-2.533-.867-4.742-2.126-6.625-3.775-1.883-1.65-3.366-3.658-4.45-6.025-1.082-2.366-1.624-5.066-1.624-8.1 0-3.066.533-5.816 1.6-8.25 1.067-2.433 2.533-4.5 4.4-6.2s4.075-3 6.625-3.9c2.552-.9 5.31-1.35 8.276-1.35 1.633 0 3.375.2 5.225.6 1.852.4 3.643 1.01 5.376 1.825 1.733.817 3.3 1.834 4.7 3.05 1.4 1.218 2.467 2.625 3.2 4.226l-12.8 4.7c-.534-.967-1.26-1.69-2.175-2.176-.917-.482-1.925-.725-3.024-.725-1.233 0-2.317.242-3.25.725a7.288 7.288 0 0 0-2.375 1.95 8.633 8.633 0 0 0-1.474 2.8 10.75 10.75 0 0 0-.5 3.275 9.54 9.54 0 0 0 .475 3 8.117 8.117 0 0 0 1.376 2.575c.6.75 1.342 1.35 2.225 1.8s1.876.675 2.977.675c.532 0 1.09-.066 1.675-.2a6.904 6.904 0 0 0 1.65-.6 5.185 5.185 0 0 0 1.375-1.025c.4-.416.683-.907.85-1.475h-6.2v-8.9h21.15zM419.646 76.812h-14.5l13.1-37.7h15.15l13.45 37.7h-14.5l-1.25-4.7h-10.35l-1.1 4.7zm9.05-13.65l-1.6-6.65c-.2-.8-.367-1.607-.5-2.425l-.4-2.425h-.5l-2.5 11.5h5.5zM459.246 39.11h14.1l5.2 19.802h.35c.133-.833.267-1.676.4-2.525.133-.85.316-1.675.55-2.475l4.25-14.8h13.95l6.2 37.7h-13.25l-1.85-20.65h-.25c-.135.633-.268 1.267-.4 1.9-.134.633-.3 1.25-.5 1.85l-5.45 16.9h-8l-4.9-15.95c-.2-.8-.375-1.583-.524-2.35a21.4 21.4 0 0 1-.325-2.35h-.45c-.067.766-.125 1.523-.175 2.273s-.108 1.51-.175 2.275l-1.6 16.1h-13.25l6.1-37.7zM513.645 39.11h25.35v10.302h-11.55v3.6h10.55v9.8h-10.55v3.7h11.95v10.3h-25.75v-37.7z"/></g></svg>